<?xml version="1.0" encoding="utf-8"?>
<!-- Generator: Adobe Illustrator 16.0.0, SVG Export Plug-In . SVG Version: 6.00 Build 0)  -->
<!DOCTYPE svg PUBLIC "-//W3C//DTD SVG 1.1//EN" "http://www.w3.org/Graphics/SVG/1.1/DTD/svg11.dtd">
<svg version="1.1" id="Layer_1" xmlns="http://www.w3.org/2000/svg" xmlns:xlink="http://www.w3.org/1999/xlink" x="0px" y="0px"
	 width="572.308px" height="158.461px" viewBox="0 0 572.308 158.461" enable-background="new 0 0 572.308 158.461"
	 xml:space="preserve">
<g>
	<path fill="#0BA3F7" d="M21.364,106.741c-0.491,2.377-0.472,4.138,0.062,5.284c0.53,1.146,1.411,1.72,2.637,1.72
		c2.289,0,4.458-0.448,6.502-1.35l-0.367,10.826c-1.473,0.892-3.601,1.618-6.38,2.188c-2.78,0.565-5.521,0.849-8.219,0.849
		c-3.518,0-6.195-0.675-8.035-2.023c-1.84-1.35-2.761-3.865-2.761-7.545c0-1.88,0.246-4.048,0.737-6.502l15.089-71.273h15.089
		L21.364,106.741z"/>
	<path fill="#0BA3F7" d="M36.82,104.913c0-6.46,0.919-12.348,2.759-17.665c1.84-5.315,4.294-9.854,7.361-13.617
		c3.066-3.761,6.623-6.686,10.673-8.771c4.048-2.085,8.28-3.128,12.696-3.128c3.926,0,7.237,0.614,9.936,1.84
		c2.699,1.228,4.887,2.864,6.563,4.907c1.676,2.046,2.884,4.376,3.619,6.992c0.735,2.619,1.104,5.317,1.104,8.097
		c0,6.379-0.902,12.206-2.699,17.481c-1.799,5.274-4.213,9.795-7.238,13.555c-3.026,3.763-6.543,6.687-10.549,8.771
		c-4.009,2.086-8.22,3.129-12.636,3.129c-3.846,0-7.114-0.635-9.814-1.902c-2.698-1.267-4.929-2.923-6.686-4.968
		c-1.759-2.043-3.048-4.355-3.864-6.932C37.229,110.125,36.82,107.531,36.82,104.913z M52.398,102.88
		c0,7.406,2.657,11.109,7.974,11.109c1.963,0,3.884-0.862,5.767-2.591c1.88-1.729,3.558-3.991,5.028-6.789
		c1.474-2.799,2.639-5.968,3.498-9.506c0.858-3.538,1.288-7.077,1.288-10.615c0-3.291-0.553-5.821-1.657-7.59
		c-1.104-1.77-3.17-2.655-6.195-2.655c-1.962,0-3.885,0.824-5.766,2.469c-1.882,1.646-3.557,3.807-5.029,6.48
		c-1.472,2.676-2.658,5.741-3.558,9.197C52.848,95.846,52.398,99.342,52.398,102.88z"/>
	<path fill="#0BA3F7" d="M99.873,63.449h7.973l2.454-11.531l16.07-4.539l-3.436,16.07h14.354l-2.822,12.513h-14.229l-6.011,27.904
		c-0.492,2.224-0.736,4.033-0.736,5.433c0,1.811,0.408,3.045,1.227,3.704c0.816,0.66,2.044,0.987,3.68,0.987
		c1.553,0,2.964-0.172,4.232-0.52c1.268-0.345,2.596-0.908,3.987-1.688v11.286c-0.901,0.49-1.984,0.962-3.25,1.411
		c-1.27,0.448-2.639,0.815-4.11,1.104c-1.473,0.286-2.986,0.51-4.539,0.675c-1.555,0.163-2.987,0.246-4.293,0.246
		c-4.172,0-7.383-0.965-9.63-2.89c-2.251-1.926-3.374-4.856-3.374-8.794c0-0.818,0.061-1.679,0.185-2.581
		c0.122-0.901,0.263-1.845,0.429-2.83l7.115-33.447h-8.221L99.873,63.449z"/>
	<path fill="#0BA3F7" d="M137.531,63.449h7.974l2.454-11.531l16.07-4.539l-3.435,16.07h14.354l-2.822,12.513h-14.23l-6.011,27.904
		c-0.49,2.224-0.735,4.033-0.735,5.433c0,1.811,0.408,3.045,1.227,3.704c0.816,0.66,2.043,0.987,3.68,0.987
		c1.552,0,2.964-0.172,4.232-0.52c1.266-0.345,2.596-0.908,3.987-1.688v11.286c-0.901,0.49-1.984,0.962-3.251,1.411
		c-1.27,0.448-2.637,0.815-4.11,1.104c-1.472,0.286-2.986,0.51-4.538,0.675c-1.556,0.163-2.987,0.246-4.294,0.246
		c-4.171,0-7.382-0.965-9.63-2.89c-2.251-1.926-3.373-4.856-3.373-8.794c0-0.818,0.061-1.679,0.185-2.581
		c0.12-0.901,0.264-1.845,0.429-2.83l7.115-33.447h-8.221L137.531,63.449z"/>
	<path fill="#0BA3F7" d="M171.512,104.913c0-6.46,0.92-12.348,2.76-17.665c1.84-5.315,4.294-9.854,7.36-13.617
		c3.066-3.761,6.625-6.686,10.672-8.771c4.049-2.085,8.281-3.128,12.697-3.128c3.926,0,7.238,0.614,9.936,1.84
		c2.701,1.228,4.887,2.864,6.564,4.907c1.675,2.046,2.883,4.376,3.619,6.992c0.736,2.619,1.104,5.317,1.104,8.097
		c0,6.379-0.902,12.206-2.7,17.481c-1.799,5.274-4.213,9.795-7.236,13.555c-3.027,3.763-6.545,6.687-10.551,8.771
		c-4.008,2.086-8.221,3.129-12.635,3.129c-3.846,0-7.115-0.635-9.814-1.902c-2.698-1.267-4.928-2.923-6.686-4.968
		c-1.76-2.043-3.049-4.355-3.863-6.932C171.919,110.125,171.512,107.531,171.512,104.913z M187.091,102.88
		c0,7.406,2.656,11.109,7.975,11.109c1.962,0,3.883-0.862,5.765-2.591c1.881-1.729,3.558-3.991,5.03-6.789
		c1.472-2.799,2.637-5.968,3.495-9.506c0.86-3.538,1.288-7.077,1.288-10.615c0-3.291-0.551-5.821-1.655-7.59
		c-1.104-1.77-3.171-2.655-6.196-2.655c-1.962,0-3.885,0.824-5.765,2.469c-1.883,1.646-3.558,3.807-5.029,6.48
		c-1.472,2.676-2.659,5.741-3.558,9.197C187.539,95.846,187.091,99.342,187.091,102.88z"/>
	<path fill="#F78B0B" d="M379.19,110.433c1.635,0.932,3.742,1.757,6.318,2.478c2.574,0.721,5.293,1.079,8.157,1.079
		c2.862,0,5.049-0.556,6.563-1.667c1.512-1.112,2.309-2.823,2.393-5.132c0-1.648-0.492-3.068-1.473-4.264
		c-0.982-1.194-2.23-2.327-3.742-3.398c-1.514-1.072-3.128-2.161-4.846-3.265c-1.717-1.104-3.334-2.371-4.845-3.804
		c-1.515-1.429-2.761-3.128-3.741-5.09c-0.981-1.964-1.473-4.335-1.473-7.116c0-2.698,0.53-5.192,1.595-7.482
		c1.062-2.289,2.555-4.252,4.478-5.889c1.921-1.635,4.251-2.901,6.992-3.803c2.739-0.899,5.828-1.35,9.262-1.35
		c4.742,0,8.668,0.35,11.777,1.043c3.106,0.696,5.561,1.575,7.359,2.638l-4.17,11.531c-1.638-0.771-3.619-1.413-5.951-1.927
		c-2.33-0.514-4.764-0.772-7.297-0.772c-2.619,0-4.684,0.455-6.196,1.36c-1.515,0.909-2.269,2.353-2.269,4.333
		c0,1.32,0.49,2.495,1.471,3.526c0.982,1.031,2.229,2.084,3.742,3.157c1.513,1.073,3.128,2.16,4.845,3.264
		c1.718,1.104,3.332,2.435,4.847,3.987c1.512,1.555,2.76,3.333,3.74,5.337c0.983,2.005,1.473,4.396,1.473,7.176
		c0,6.789-2.208,11.838-6.624,15.15c-4.417,3.312-10.306,4.969-17.665,4.969c-4.17,0-7.994-0.39-11.47-1.166
		c-3.478-0.776-6.155-1.736-8.034-2.883L379.19,110.433z"/>
	<path fill="#F78B0B" d="M429.487,63.449h7.973l2.453-11.531l16.07-4.539l-3.435,16.07h14.353l-2.82,12.513H449.85l-6.011,27.904
		c-0.491,2.224-0.736,4.033-0.736,5.433c0,1.811,0.408,3.045,1.227,3.704c0.817,0.66,2.045,0.987,3.682,0.987
		c1.552,0,2.963-0.172,4.231-0.52c1.268-0.345,2.595-0.908,3.987-1.688v11.286c-0.9,0.49-1.985,0.962-3.252,1.411
		c-1.268,0.448-2.637,0.815-4.109,1.104c-1.472,0.286-2.986,0.51-4.539,0.675c-1.554,0.163-2.985,0.246-4.293,0.246
		c-4.171,0-7.383-0.965-9.63-2.89c-2.25-1.926-3.374-4.856-3.374-8.794c0-0.818,0.062-1.679,0.184-2.581
		c0.124-0.901,0.266-1.845,0.431-2.83l7.114-33.447h-8.218L429.487,63.449z"/>
	<path fill="#F78B0B" d="M513.884,100.25c-0.654,3.109-1.124,6.256-1.41,9.446c-0.287,3.189-0.43,6.216-0.43,9.077
		c0,1.146,0.02,2.229,0.062,3.251c0.04,1.023,0.102,1.984,0.185,2.884h-11.164l-1.717-10.551h-0.491
		c-0.901,1.473-2.065,2.926-3.496,4.355c-1.432,1.432-3.005,2.74-4.723,3.925c-1.718,1.188-3.538,2.128-5.459,2.822
		c-1.923,0.693-3.906,1.043-5.949,1.043c-5.397,0-9.385-1.759-11.962-5.275c-2.576-3.516-3.863-8.22-3.863-14.107
		c0-5.969,0.754-11.694,2.268-17.175c1.514-5.478,3.867-10.305,7.056-14.476c3.189-4.17,7.216-7.502,12.083-9.997
		c4.865-2.494,10.652-3.742,17.358-3.742c2.862,0,5.989,0.267,9.385,0.798c3.393,0.533,6.686,1.247,9.875,2.146L513.884,100.25z
		 M485.057,113.99c1.472,0,2.862-0.309,4.17-0.926s2.516-1.418,3.619-2.407c1.104-0.987,2.086-2.057,2.944-3.208
		c0.858-1.152,1.613-2.223,2.27-3.209l6.134-28.762c-0.901-0.41-1.943-0.719-3.128-0.926c-1.187-0.205-2.352-0.309-3.496-0.309
		c-2.944,0-5.563,0.886-7.852,2.655c-2.291,1.769-4.232,4.072-5.827,6.912c-1.595,2.841-2.802,6.049-3.618,9.628
		c-0.818,3.58-1.227,7.18-1.227,10.801c0,2.633,0.429,4.916,1.287,6.851C481.192,113.024,482.766,113.99,485.057,113.99z"/>
	<path fill="#F78B0B" d="M546.024,63.449l0.122,11.014h0.491c1.799-3.331,3.986-6.164,6.563-8.497
		c2.575-2.331,5.826-3.498,9.751-3.498c1.719,0,3.762,0.334,6.135,0.999l-3.805,13.354c-0.816-0.245-1.593-0.448-2.33-0.613
		c-0.735-0.163-1.513-0.245-2.33-0.245c-3.354,0-6.439,1.079-9.262,3.235c-2.821,2.156-4.968,4.658-6.441,7.506l-7.973,38.083
		h-15.089l13.003-61.337H546.024z"/>
	<polygon fill="#F78B0B" points="381.61,65.973 373.33,57.448 305.681,57.453 298.255,79.741 313.429,65.962 367.409,65.966 
		336.858,88.75 352.398,135.496 347.021,91.71 	"/>
	<polygon fill="#0BA3F7" points="310.06,3.343 299.358,8.513 278.034,72.714 296.843,86.788 288.552,68.044 305.574,16.818 
		317.563,52.993 366.826,52.986 323.578,44.284 	"/>
	<polygon fill="#F78B0B" points="344.748,153.629 350.241,143.09 328.99,78.866 305.499,78.815 323.345,88.893 340.294,140.144 
		309.069,118.294 269.568,147.73 309.449,128.873 	"/>
	<polygon fill="#F78B0B" points="249.932,146.146 261.665,148.034 315.907,107.608 308.544,85.299 304.61,105.414 261.323,137.666 
		272.208,101.144 231.813,72.944 262.289,104.839 	"/>
	<polygon fill="#F78B0B" points="227.118,53.833 229.052,65.559 284.604,104.165 303.423,90.101 283.1,92.756 238.775,61.945 
		276.864,60.672 290.785,13.417 270.212,52.441 	"/>
</g>
</svg>
